G75*
%MOIN*%
%OFA0B0*%
%FSLAX24Y24*%
%IPPOS*%
%LPD*%
%AMOC8*
5,1,8,0,0,1.08239X$1,22.5*
%
%ADD10C,0.0040*%
%ADD11C,0.0080*%
%ADD12C,0.0030*%
%ADD13C,0.0197*%
D10*
X007230Y001598D02*
X007290Y001538D01*
X007410Y001538D01*
X007470Y001598D01*
X007470Y001838D01*
X007410Y001898D01*
X007290Y001898D01*
X007230Y001838D01*
X007230Y001598D01*
X007599Y001598D02*
X007599Y001898D01*
X007839Y001898D02*
X007839Y001598D01*
X007779Y001538D01*
X007659Y001538D01*
X007599Y001598D01*
X007967Y001898D02*
X008207Y001898D01*
X008087Y001898D02*
X008087Y001538D01*
X007921Y002227D02*
X007921Y002687D01*
X007691Y002457D01*
X007998Y002457D01*
X007537Y002687D02*
X007384Y002687D01*
X007460Y002687D02*
X007460Y002304D01*
X007384Y002227D01*
X007307Y002227D01*
X007230Y002304D01*
X012840Y002304D02*
X012917Y002227D01*
X012994Y002227D01*
X013071Y002304D01*
X013071Y002687D01*
X013147Y002687D02*
X012994Y002687D01*
X013301Y002611D02*
X013378Y002687D01*
X013531Y002687D01*
X013608Y002611D01*
X013608Y002534D01*
X013531Y002457D01*
X013608Y002380D01*
X013608Y002304D01*
X013531Y002227D01*
X013378Y002227D01*
X013301Y002304D01*
X013454Y002457D02*
X013531Y002457D01*
X013326Y001898D02*
X013326Y001538D01*
X013086Y001898D01*
X013086Y001538D01*
X012961Y001538D02*
X012840Y001538D01*
X012901Y001538D02*
X012901Y001898D01*
X012961Y001898D02*
X012840Y001898D01*
X013620Y003077D02*
X013980Y003077D01*
X013980Y003317D01*
X013800Y003445D02*
X013800Y003685D01*
X013680Y003565D02*
X013920Y003565D01*
X015360Y003364D02*
X015950Y003364D01*
X015950Y004593D02*
X015360Y004593D01*
X013980Y005077D02*
X013620Y005077D01*
X013620Y005257D01*
X013680Y005317D01*
X013800Y005317D01*
X013860Y005257D01*
X013860Y005077D01*
X013860Y005197D02*
X013980Y005317D01*
X013800Y005445D02*
X013800Y005685D01*
X013680Y005565D02*
X013920Y005565D01*
X014320Y006177D02*
X014320Y006537D01*
X014440Y006417D01*
X014560Y006537D01*
X014560Y006177D01*
X014688Y006237D02*
X014748Y006177D01*
X014868Y006177D01*
X014929Y006237D01*
X015057Y006297D02*
X015297Y006537D01*
X015117Y006357D02*
X015297Y006177D01*
X015057Y006177D02*
X015057Y006537D01*
X014929Y006477D02*
X014868Y006537D01*
X014748Y006537D01*
X014688Y006477D01*
X014688Y006237D01*
X014679Y008526D02*
X014986Y008833D01*
X014986Y008910D01*
X014909Y008987D01*
X014756Y008987D01*
X014679Y008910D01*
X014525Y008987D02*
X014372Y008987D01*
X014449Y008987D02*
X014449Y008603D01*
X014372Y008526D01*
X014295Y008526D01*
X014218Y008603D01*
X014679Y008526D02*
X014986Y008526D01*
X014868Y010177D02*
X014748Y010177D01*
X014688Y010237D01*
X014748Y010357D02*
X014868Y010357D01*
X014929Y010297D01*
X014929Y010237D01*
X014868Y010177D01*
X014748Y010357D02*
X014688Y010417D01*
X014688Y010477D01*
X014748Y010537D01*
X014868Y010537D01*
X014929Y010477D01*
X014560Y010537D02*
X014560Y010177D01*
X014440Y010297D01*
X014320Y010177D01*
X014320Y010537D01*
X014320Y011177D02*
X014500Y011177D01*
X014560Y011237D01*
X014560Y011297D01*
X014500Y011357D01*
X014320Y011357D01*
X014320Y011177D02*
X014320Y011537D01*
X014500Y011537D01*
X014560Y011477D01*
X014560Y011417D01*
X014500Y011357D01*
X014688Y011477D02*
X014688Y011237D01*
X014748Y011177D01*
X014868Y011177D01*
X014929Y011237D01*
X015057Y011297D02*
X015297Y011537D01*
X015057Y011537D02*
X015057Y011177D01*
X015117Y011357D02*
X015297Y011177D01*
X014929Y011477D02*
X014868Y011537D01*
X014748Y011537D01*
X014688Y011477D01*
X014688Y012177D02*
X014868Y012177D01*
X014929Y012237D01*
X014929Y012477D01*
X014868Y012537D01*
X014688Y012537D01*
X014688Y012177D01*
X014560Y012237D02*
X014500Y012177D01*
X014380Y012177D01*
X014320Y012237D01*
X014380Y012357D02*
X014500Y012357D01*
X014560Y012297D01*
X014560Y012237D01*
X014560Y012477D02*
X014500Y012537D01*
X014380Y012537D01*
X014320Y012477D01*
X014320Y012417D01*
X014380Y012357D01*
X015057Y012357D02*
X015117Y012417D01*
X015237Y012417D01*
X015297Y012357D01*
X015297Y012297D01*
X015057Y012297D01*
X015057Y012237D02*
X015057Y012357D01*
X015057Y012237D02*
X015117Y012177D01*
X015237Y012177D01*
X015425Y012177D02*
X015665Y012417D01*
X015793Y012417D02*
X015913Y012417D01*
X015853Y012477D02*
X015853Y012237D01*
X015913Y012177D01*
X015665Y012177D02*
X015425Y012417D01*
X014868Y013177D02*
X014688Y013177D01*
X014688Y013537D01*
X014868Y013537D01*
X014929Y013477D01*
X014929Y013237D01*
X014868Y013177D01*
X014560Y013237D02*
X014500Y013177D01*
X014380Y013177D01*
X014320Y013237D01*
X014380Y013357D02*
X014500Y013357D01*
X014560Y013297D01*
X014560Y013237D01*
X014560Y013477D02*
X014500Y013537D01*
X014380Y013537D01*
X014320Y013477D01*
X014320Y013417D01*
X014380Y013357D01*
X010502Y009282D02*
X010502Y008821D01*
X010655Y008821D02*
X010348Y008821D01*
X010195Y008898D02*
X010195Y009282D01*
X010348Y009128D02*
X010502Y009282D01*
X010195Y008898D02*
X010118Y008821D01*
X009964Y008821D01*
X009888Y008898D01*
X009888Y009282D01*
X003962Y009008D02*
X003962Y008931D01*
X003885Y008855D01*
X003962Y008778D01*
X003962Y008701D01*
X003885Y008625D01*
X003732Y008625D01*
X003655Y008701D01*
X003502Y008701D02*
X003502Y009085D01*
X003655Y009008D02*
X003732Y009085D01*
X003885Y009085D01*
X003962Y009008D01*
X003885Y008855D02*
X003809Y008855D01*
X003502Y008701D02*
X003425Y008625D01*
X003272Y008625D01*
X003195Y008701D01*
X003195Y009085D01*
X000989Y008191D02*
X000529Y008191D01*
X000529Y008344D02*
X000529Y008037D01*
X000606Y007884D02*
X000529Y007807D01*
X000529Y007654D01*
X000606Y007577D01*
X000913Y007577D01*
X000989Y007654D01*
X000989Y007807D01*
X000913Y007884D01*
X000606Y007884D01*
X000606Y007423D02*
X000759Y007423D01*
X000836Y007347D01*
X000836Y007116D01*
X000836Y006963D02*
X000529Y006963D01*
X000529Y007116D02*
X000529Y007347D01*
X000606Y007423D01*
X000529Y007116D02*
X000989Y007116D01*
X000836Y006963D02*
X000989Y006810D01*
X000836Y006656D01*
X000529Y006656D01*
X001303Y013152D02*
X001380Y013152D01*
X001456Y013229D01*
X001456Y013613D01*
X001380Y013613D02*
X001533Y013613D01*
X001687Y013459D02*
X001840Y013613D01*
X001840Y013152D01*
X001687Y013152D02*
X001994Y013152D01*
X001303Y013152D02*
X001226Y013229D01*
D11*
X002145Y013907D02*
X003055Y013907D01*
X003055Y005806D01*
X002145Y005806D01*
X002145Y013907D01*
X002055Y008907D02*
X001145Y008907D01*
X001145Y005806D01*
X002055Y005806D01*
X002055Y008907D01*
X004297Y008762D02*
X004297Y008546D01*
X004297Y008762D02*
X004513Y008762D01*
X005576Y008762D02*
X005793Y008546D01*
X005793Y008762D01*
X005576Y008762D01*
X005793Y007483D02*
X005793Y007266D01*
X005576Y007266D01*
X004513Y007266D02*
X004297Y007266D01*
X004297Y007483D01*
X003372Y006046D02*
X005340Y006046D01*
X005340Y005357D01*
X005340Y006046D02*
X007112Y006046D01*
X007112Y005750D01*
X007112Y004274D02*
X007112Y003880D01*
X007112Y002601D02*
X007112Y001420D01*
X008982Y001420D02*
X008982Y001715D01*
X012722Y001420D02*
X012722Y002601D01*
X014145Y001806D02*
X015055Y001806D01*
X015055Y005907D01*
X014145Y005907D01*
X014145Y001806D01*
X012722Y003880D02*
X012722Y004274D01*
X012722Y005750D02*
X012722Y006046D01*
X010950Y006046D01*
X010950Y005357D01*
X010950Y006046D02*
X008982Y006046D01*
X008982Y005455D01*
X013145Y005806D02*
X013145Y013907D01*
X014055Y013907D01*
X014055Y005806D01*
X013145Y005806D01*
X011167Y009530D02*
X011108Y009530D01*
X011167Y009530D02*
X011305Y009668D01*
X011305Y009727D01*
X010006Y009530D02*
X009946Y009530D01*
X009809Y009668D01*
X009809Y009727D01*
X009809Y010829D02*
X009809Y010888D01*
X009946Y011026D01*
X010006Y011026D01*
X011108Y011026D02*
X011167Y011026D01*
X011305Y010888D01*
X011305Y010829D01*
X003372Y006046D02*
X003372Y005455D01*
X003372Y001715D02*
X003372Y001420D01*
D12*
X001123Y001631D02*
X001123Y002002D01*
X001308Y002002D01*
X001370Y001940D01*
X001370Y001817D01*
X001308Y001755D01*
X001123Y001755D01*
X001246Y001755D02*
X001370Y001631D01*
X001491Y001631D02*
X001491Y001693D01*
X001738Y001940D01*
X001738Y002002D01*
X001491Y002002D01*
X001914Y002002D02*
X001914Y001631D01*
X001914Y001755D02*
X002099Y001755D01*
X002161Y001817D01*
X002161Y001940D01*
X002099Y002002D01*
X001914Y002002D01*
X002038Y001755D02*
X002161Y001631D01*
X002283Y001693D02*
X002344Y001631D01*
X002468Y001631D01*
X002529Y001693D01*
X002529Y001817D01*
X002468Y001878D01*
X002406Y001878D01*
X002283Y001817D01*
X002283Y002002D01*
X002529Y002002D01*
X001479Y004584D02*
X001356Y004584D01*
X001294Y004646D01*
X001173Y004584D02*
X000926Y004584D01*
X000926Y004954D01*
X001294Y004893D02*
X001356Y004954D01*
X001479Y004954D01*
X001541Y004893D01*
X001541Y004831D01*
X001479Y004769D01*
X001541Y004708D01*
X001541Y004646D01*
X001479Y004584D01*
X001479Y004769D02*
X001418Y004769D01*
X003252Y006848D02*
X003375Y006848D01*
X003437Y006910D01*
X003558Y006848D02*
X003805Y006848D01*
X003682Y006848D02*
X003682Y007218D01*
X003558Y007095D01*
X003437Y007157D02*
X003375Y007218D01*
X003252Y007218D01*
X003190Y007157D01*
X003190Y006910D01*
X003252Y006848D01*
X003926Y006910D02*
X003988Y006848D01*
X004112Y006848D01*
X004173Y006910D01*
X004173Y006971D01*
X004112Y007033D01*
X003926Y007033D01*
X003926Y006910D01*
X003926Y007033D02*
X004050Y007157D01*
X004173Y007218D01*
X006143Y007992D02*
X006204Y007931D01*
X006328Y007931D01*
X006389Y007992D01*
X006511Y007931D02*
X006758Y007931D01*
X006634Y007931D02*
X006634Y008301D01*
X006511Y008177D01*
X006389Y008239D02*
X006328Y008301D01*
X006204Y008301D01*
X006143Y008239D01*
X006143Y007992D01*
X006879Y007992D02*
X006941Y007931D01*
X007064Y007931D01*
X007126Y007992D01*
X007126Y008054D01*
X007064Y008116D01*
X007003Y008116D01*
X007064Y008116D02*
X007126Y008177D01*
X007126Y008239D01*
X007064Y008301D01*
X006941Y008301D01*
X006879Y008239D01*
X007324Y007747D02*
X007324Y007500D01*
X007385Y007438D01*
X007509Y007438D01*
X007571Y007500D01*
X007692Y007438D02*
X007939Y007438D01*
X007815Y007438D02*
X007815Y007809D01*
X007692Y007685D01*
X007571Y007747D02*
X007509Y007809D01*
X007385Y007809D01*
X007324Y007747D01*
X007385Y007218D02*
X007324Y007157D01*
X007324Y006910D01*
X007385Y006848D01*
X007509Y006848D01*
X007571Y006910D01*
X007692Y006848D02*
X007939Y006848D01*
X007815Y006848D02*
X007815Y007218D01*
X007692Y007095D01*
X007571Y007157D02*
X007509Y007218D01*
X007385Y007218D01*
X008060Y007218D02*
X008060Y007033D01*
X008184Y007095D01*
X008245Y007095D01*
X008307Y007033D01*
X008307Y006910D01*
X008245Y006848D01*
X008122Y006848D01*
X008060Y006910D01*
X008060Y007218D02*
X008307Y007218D01*
X008245Y007438D02*
X008122Y007438D01*
X008060Y007500D01*
X008307Y007747D01*
X008307Y007500D01*
X008245Y007438D01*
X008060Y007500D02*
X008060Y007747D01*
X008122Y007809D01*
X008245Y007809D01*
X008307Y007747D01*
X008271Y008324D02*
X008333Y008386D01*
X008333Y008448D01*
X008271Y008509D01*
X008086Y008509D01*
X008086Y008386D01*
X008147Y008324D01*
X008271Y008324D01*
X008086Y008509D02*
X008209Y008633D01*
X008333Y008695D01*
X007964Y008633D02*
X007903Y008695D01*
X007779Y008695D01*
X007717Y008633D01*
X007717Y008386D01*
X007779Y008324D01*
X007903Y008324D01*
X007964Y008386D01*
X008001Y009013D02*
X007878Y009013D01*
X007816Y009075D01*
X007816Y009322D01*
X007878Y009384D01*
X008001Y009384D01*
X008063Y009322D01*
X008184Y009384D02*
X008184Y009198D01*
X008308Y009260D01*
X008369Y009260D01*
X008431Y009198D01*
X008431Y009075D01*
X008369Y009013D01*
X008246Y009013D01*
X008184Y009075D01*
X008063Y009075D02*
X008001Y009013D01*
X008184Y009384D02*
X008431Y009384D01*
X007195Y010551D02*
X007134Y010490D01*
X006887Y010490D01*
X006825Y010551D01*
X006825Y010675D01*
X006887Y010737D01*
X006887Y010858D02*
X006948Y010858D01*
X007010Y010920D01*
X007010Y011105D01*
X006887Y011105D02*
X006825Y011043D01*
X006825Y010920D01*
X006887Y010858D01*
X007134Y010858D02*
X007195Y010920D01*
X007195Y011043D01*
X007134Y011105D01*
X006887Y011105D01*
X007225Y011474D02*
X007225Y011844D01*
X007410Y011844D01*
X007472Y011782D01*
X007472Y011659D01*
X007410Y011597D01*
X007225Y011597D01*
X007349Y011597D02*
X007472Y011474D01*
X007594Y011474D02*
X007840Y011721D01*
X007840Y011782D01*
X007779Y011844D01*
X007655Y011844D01*
X007594Y011782D01*
X007594Y011474D02*
X007840Y011474D01*
X007878Y011352D02*
X007816Y011290D01*
X007816Y011043D01*
X007878Y010982D01*
X008001Y010982D01*
X008063Y011043D01*
X008184Y010982D02*
X008431Y011229D01*
X008431Y011290D01*
X008369Y011352D01*
X008246Y011352D01*
X008184Y011290D01*
X008063Y011290D02*
X008001Y011352D01*
X007878Y011352D01*
X008184Y010982D02*
X008431Y010982D01*
X008898Y011094D02*
X008898Y010847D01*
X008960Y010785D01*
X009084Y010785D01*
X009145Y010847D01*
X009267Y010785D02*
X009514Y010785D01*
X009390Y010785D02*
X009390Y011155D01*
X009267Y011032D01*
X009145Y011094D02*
X009084Y011155D01*
X008960Y011155D01*
X008898Y011094D01*
X007840Y012360D02*
X007594Y012360D01*
X007472Y012360D02*
X007349Y012483D01*
X007410Y012483D02*
X007225Y012483D01*
X007225Y012360D02*
X007225Y012730D01*
X007410Y012730D01*
X007472Y012668D01*
X007472Y012545D01*
X007410Y012483D01*
X007594Y012607D02*
X007717Y012730D01*
X007717Y012360D01*
X008603Y013344D02*
X008850Y013344D01*
X008972Y013344D02*
X009218Y013344D01*
X009095Y013344D02*
X009095Y013714D01*
X008972Y013591D01*
X008603Y013714D02*
X008603Y013344D01*
X006113Y010945D02*
X006051Y011006D01*
X005989Y011006D01*
X005927Y010945D01*
X005927Y010821D01*
X005866Y010760D01*
X005804Y010760D01*
X005742Y010821D01*
X005742Y010945D01*
X005804Y011006D01*
X005866Y011006D01*
X005927Y010945D01*
X005927Y010821D02*
X005989Y010760D01*
X006051Y010760D01*
X006113Y010821D01*
X006113Y010945D01*
X006051Y010638D02*
X006113Y010576D01*
X006113Y010453D01*
X006051Y010391D01*
X005804Y010391D01*
X005742Y010453D01*
X005742Y010576D01*
X005804Y010638D01*
X005522Y010576D02*
X005522Y010453D01*
X005460Y010391D01*
X005213Y010391D01*
X005152Y010453D01*
X005152Y010576D01*
X005213Y010638D01*
X005275Y010760D02*
X005152Y010883D01*
X005522Y010883D01*
X005522Y010760D02*
X005522Y011006D01*
X005522Y011128D02*
X005275Y011375D01*
X005213Y011375D01*
X005152Y011313D01*
X005152Y011190D01*
X005213Y011128D01*
X004931Y011128D02*
X004931Y011375D01*
X004931Y011251D02*
X004561Y011251D01*
X004685Y011128D01*
X004561Y010883D02*
X004931Y010883D01*
X004931Y010760D02*
X004931Y011006D01*
X004685Y010760D02*
X004561Y010883D01*
X004341Y010760D02*
X004279Y010760D01*
X004032Y011006D01*
X003971Y011006D01*
X003971Y010760D01*
X004032Y010638D02*
X003971Y010576D01*
X003971Y010453D01*
X004032Y010391D01*
X004279Y010391D01*
X004341Y010453D01*
X004341Y010576D01*
X004279Y010638D01*
X004561Y010576D02*
X004561Y010453D01*
X004623Y010391D01*
X004870Y010391D01*
X004931Y010453D01*
X004931Y010576D01*
X004870Y010638D01*
X004623Y010638D02*
X004561Y010576D01*
X005460Y010638D02*
X005522Y010576D01*
X005522Y011128D02*
X005522Y011375D01*
X007134Y010737D02*
X007195Y010675D01*
X007195Y010551D01*
X004714Y012852D02*
X004714Y012914D01*
X004961Y013160D01*
X004961Y013222D01*
X004714Y013222D01*
X004469Y013222D02*
X004469Y012852D01*
X004346Y012852D02*
X004592Y012852D01*
X004346Y013099D02*
X004469Y013222D01*
X004224Y013160D02*
X004162Y013222D01*
X004039Y013222D01*
X003977Y013160D01*
X003977Y012914D01*
X004039Y012852D01*
X004162Y012852D01*
X004224Y012914D01*
X003750Y012396D02*
X003380Y012396D01*
X003565Y012211D01*
X003565Y012457D01*
X003750Y012089D02*
X003750Y011842D01*
X003750Y011966D02*
X003380Y011966D01*
X003503Y011842D01*
X003442Y011721D02*
X003380Y011659D01*
X003380Y011536D01*
X003442Y011474D01*
X003689Y011474D01*
X003750Y011536D01*
X003750Y011659D01*
X003689Y011721D01*
X001290Y010132D02*
X000919Y010132D01*
X001105Y009947D01*
X001105Y010194D01*
X001043Y009825D02*
X000981Y009825D01*
X000919Y009764D01*
X000919Y009640D01*
X000981Y009578D01*
X000981Y009457D02*
X000919Y009395D01*
X000919Y009272D01*
X000981Y009210D01*
X001228Y009210D01*
X001290Y009272D01*
X001290Y009395D01*
X001228Y009457D01*
X001290Y009578D02*
X001043Y009825D01*
X001290Y009825D02*
X001290Y009578D01*
X009095Y008104D02*
X009095Y007734D01*
X009095Y007857D02*
X009280Y007857D01*
X009342Y007919D01*
X009342Y008042D01*
X009280Y008104D01*
X009095Y008104D01*
X009219Y007857D02*
X009342Y007734D01*
X009464Y007919D02*
X009711Y007919D01*
X009649Y007734D02*
X009649Y008104D01*
X009464Y007919D01*
X010473Y008006D02*
X010843Y008006D01*
X010843Y007883D02*
X010843Y008130D01*
X010782Y008251D02*
X010843Y008313D01*
X010843Y008436D01*
X010782Y008498D01*
X010535Y008498D01*
X010473Y008436D01*
X010473Y008313D01*
X010535Y008251D01*
X010596Y008251D01*
X010658Y008313D01*
X010658Y008498D01*
X010473Y008006D02*
X010596Y007883D01*
X010535Y007762D02*
X010473Y007700D01*
X010473Y007576D01*
X010535Y007515D01*
X010782Y007515D01*
X010843Y007576D01*
X010843Y007700D01*
X010782Y007762D01*
X010843Y007219D02*
X010843Y006972D01*
X010843Y006850D02*
X010843Y006603D01*
X010596Y006850D01*
X010535Y006850D01*
X010473Y006789D01*
X010473Y006665D01*
X010535Y006603D01*
X010535Y006482D02*
X010473Y006420D01*
X010473Y006297D01*
X010535Y006235D01*
X010782Y006235D01*
X010843Y006297D01*
X010843Y006420D01*
X010782Y006482D01*
X010596Y006972D02*
X010473Y007095D01*
X010843Y007095D01*
X011457Y007033D02*
X011457Y007157D01*
X011519Y007219D01*
X011766Y006972D01*
X011828Y007033D01*
X011828Y007157D01*
X011766Y007219D01*
X011519Y007219D01*
X011457Y007033D02*
X011519Y006972D01*
X011766Y006972D01*
X011828Y006850D02*
X011828Y006603D01*
X011581Y006850D01*
X011519Y006850D01*
X011457Y006789D01*
X011457Y006665D01*
X011519Y006603D01*
X011519Y006482D02*
X011457Y006420D01*
X011457Y006297D01*
X011519Y006235D01*
X011766Y006235D01*
X011828Y006297D01*
X011828Y006420D01*
X011766Y006482D01*
X011766Y007515D02*
X011519Y007515D01*
X011457Y007576D01*
X011457Y007700D01*
X011519Y007762D01*
X011581Y007883D02*
X011457Y008006D01*
X011828Y008006D01*
X011828Y007883D02*
X011828Y008130D01*
X011766Y008251D02*
X011704Y008251D01*
X011642Y008313D01*
X011642Y008436D01*
X011704Y008498D01*
X011766Y008498D01*
X011828Y008436D01*
X011828Y008313D01*
X011766Y008251D01*
X011642Y008313D02*
X011581Y008251D01*
X011519Y008251D01*
X011457Y008313D01*
X011457Y008436D01*
X011519Y008498D01*
X011581Y008498D01*
X011642Y008436D01*
X012048Y008104D02*
X012233Y008104D01*
X012295Y008042D01*
X012295Y007919D01*
X012233Y007857D01*
X012048Y007857D01*
X012048Y007734D02*
X012048Y008104D01*
X012172Y007857D02*
X012295Y007734D01*
X012416Y007795D02*
X012478Y007734D01*
X012602Y007734D01*
X012663Y007795D01*
X012663Y007857D01*
X012602Y007919D01*
X012540Y007919D01*
X012602Y007919D02*
X012663Y007981D01*
X012663Y008042D01*
X012602Y008104D01*
X012478Y008104D01*
X012416Y008042D01*
X011828Y007700D02*
X011828Y007576D01*
X011766Y007515D01*
X011828Y007700D02*
X011766Y007762D01*
X015289Y005703D02*
X015289Y005579D01*
X015351Y005518D01*
X015351Y005396D02*
X015289Y005334D01*
X015289Y005211D01*
X015351Y005149D01*
X015351Y005028D02*
X015289Y004966D01*
X015289Y004843D01*
X015351Y004781D01*
X015598Y004781D01*
X015660Y004843D01*
X015660Y004966D01*
X015598Y005028D01*
X015660Y005149D02*
X015413Y005396D01*
X015351Y005396D01*
X015660Y005396D02*
X015660Y005149D01*
X015660Y005518D02*
X015413Y005764D01*
X015351Y005764D01*
X015289Y005703D01*
X015660Y005764D02*
X015660Y005518D01*
X014041Y004265D02*
X013794Y004265D01*
X013794Y004080D01*
X013918Y004142D01*
X013979Y004142D01*
X014041Y004080D01*
X014041Y003957D01*
X013979Y003895D01*
X013856Y003895D01*
X013794Y003957D01*
X013611Y003957D02*
X013549Y003895D01*
X013488Y003895D01*
X013426Y003957D01*
X013611Y003957D02*
X013611Y004265D01*
X013549Y004265D02*
X013673Y004265D01*
X015197Y003158D02*
X015568Y003158D01*
X015568Y003035D02*
X015568Y003282D01*
X015321Y003035D02*
X015197Y003158D01*
X015197Y002913D02*
X015568Y002913D01*
X015197Y002666D01*
X015568Y002666D01*
X015568Y002545D02*
X015444Y002422D01*
X015444Y002483D02*
X015444Y002298D01*
X015568Y002298D02*
X015197Y002298D01*
X015197Y002483D01*
X015259Y002545D01*
X015383Y002545D01*
X015444Y002483D01*
X015383Y002002D02*
X015259Y002002D01*
X015198Y001940D01*
X015198Y001693D01*
X015259Y001631D01*
X015383Y001631D01*
X015445Y001693D01*
X015566Y001631D02*
X015813Y001878D01*
X015813Y001940D01*
X015751Y002002D01*
X015628Y002002D01*
X015566Y001940D01*
X015445Y001940D02*
X015383Y002002D01*
X015566Y001631D02*
X015813Y001631D01*
X015934Y001693D02*
X015996Y001631D01*
X016119Y001631D01*
X016181Y001693D01*
X016181Y001755D01*
X016119Y001817D01*
X016058Y001817D01*
X016119Y001817D02*
X016181Y001878D01*
X016181Y001940D01*
X016119Y002002D01*
X015996Y002002D01*
X015934Y001940D01*
X012798Y011179D02*
X012798Y011549D01*
X012613Y011364D01*
X012860Y011364D01*
X012492Y011487D02*
X012430Y011549D01*
X012307Y011549D01*
X012245Y011487D01*
X012245Y011240D01*
X012307Y011179D01*
X012430Y011179D01*
X012492Y011240D01*
X012109Y011572D02*
X011986Y011572D01*
X011924Y011634D01*
X011803Y011634D02*
X011741Y011572D01*
X011618Y011572D01*
X011556Y011634D01*
X011556Y011881D01*
X011618Y011943D01*
X011741Y011943D01*
X011803Y011881D01*
X011924Y011881D02*
X011986Y011943D01*
X012109Y011943D01*
X012171Y011881D01*
X012171Y011819D01*
X012109Y011757D01*
X012171Y011696D01*
X012171Y011634D01*
X012109Y011572D01*
X012109Y011757D02*
X012048Y011757D01*
X012171Y012950D02*
X011924Y012950D01*
X012171Y013197D01*
X012171Y013259D01*
X012109Y013321D01*
X011986Y013321D01*
X011924Y013259D01*
X011803Y012950D02*
X011556Y012950D01*
X011556Y013321D01*
D13*
X011541Y009687D03*
X005685Y008949D03*
M02*
