G75*
%MOIN*%
%OFA0B0*%
%FSLAX24Y24*%
%IPPOS*%
%LPD*%
%AMOC8*
5,1,8,0,0,1.08239X$1,22.5*
%
%ADD10C,0.1162*%
%ADD11OC8,0.0651*%
%ADD12R,0.0651X0.0572*%
%ADD13R,0.0473X0.0485*%
%ADD14R,0.0749X0.1202*%
%ADD15R,0.0749X0.0887*%
%ADD16R,0.0946X0.1005*%
%ADD17R,0.0946X0.1202*%
%ADD18R,0.0749X0.0769*%
%ADD19C,0.0690*%
%ADD20R,0.0485X0.0473*%
%ADD21C,0.0130*%
%ADD22R,0.1044X0.1044*%
%ADD23R,0.0945X0.0945*%
%ADD24R,0.0690X0.0572*%
%ADD25R,0.0572X0.0690*%
%ADD26R,0.0572X0.0651*%
%ADD27R,0.0690X0.0532*%
%ADD28R,0.0532X0.0690*%
%ADD29R,0.0394X0.0236*%
%ADD30C,0.0400*%
D10*
X015600Y007357D03*
D11*
X013600Y007357D03*
X013600Y008357D03*
X013600Y009357D03*
X013600Y010357D03*
X013600Y011357D03*
X013600Y012357D03*
X013600Y013357D03*
X013600Y006357D03*
X014600Y005357D03*
X014600Y004357D03*
X014600Y003357D03*
X014600Y002357D03*
X002600Y006357D03*
X001600Y006357D03*
X001600Y007357D03*
X002600Y007357D03*
X002600Y008357D03*
X001600Y008357D03*
X002600Y009357D03*
X002600Y010357D03*
X002600Y011357D03*
X002600Y012357D03*
X002600Y013357D03*
D12*
X001403Y002423D03*
X001403Y003171D03*
X002289Y003171D03*
X002289Y002423D03*
X009376Y006577D03*
X009376Y007325D03*
X012328Y007325D03*
X012328Y006577D03*
D13*
X009474Y009195D03*
X008785Y009195D03*
X007013Y008605D03*
X006324Y008605D03*
X006324Y007620D03*
X006324Y007030D03*
X007013Y007030D03*
X007013Y007620D03*
X005242Y006538D03*
X004553Y006538D03*
X004750Y011853D03*
X004750Y012542D03*
X004061Y012542D03*
X004061Y011853D03*
D14*
X003175Y002423D03*
X008785Y002423D03*
D15*
X008785Y004904D03*
X003175Y004904D03*
D16*
X007407Y003250D03*
X013017Y003250D03*
D17*
X013017Y004983D03*
X007407Y004983D03*
D18*
X008785Y003723D03*
X003175Y003723D03*
D19*
X005340Y004864D03*
X005340Y002502D03*
X010950Y002502D03*
X010950Y004864D03*
D20*
X011147Y006439D03*
X011147Y007128D03*
X011147Y007719D03*
X011147Y008408D03*
X010163Y008408D03*
X010163Y007719D03*
X010163Y007128D03*
X010163Y006439D03*
X009179Y009786D03*
X009179Y010475D03*
X011836Y010770D03*
X011836Y010081D03*
X015970Y005652D03*
X015970Y004963D03*
X015970Y002994D03*
X015970Y002305D03*
X005931Y009392D03*
X005340Y009392D03*
X004750Y009392D03*
X004159Y009392D03*
X004159Y010081D03*
X004750Y010081D03*
X005340Y010081D03*
X005931Y010081D03*
X001600Y010046D03*
X001600Y009357D03*
D21*
X004169Y008408D02*
X004405Y008408D01*
X004405Y008211D02*
X004169Y008211D01*
X004169Y008014D02*
X004405Y008014D01*
X004405Y007817D02*
X004169Y007817D01*
X004169Y007620D02*
X004405Y007620D01*
X004651Y007374D02*
X004651Y007138D01*
X004848Y007138D02*
X004848Y007374D01*
X005045Y007374D02*
X005045Y007138D01*
X005242Y007138D02*
X005242Y007374D01*
X005439Y007374D02*
X005439Y007138D01*
X005685Y007620D02*
X005921Y007620D01*
X005921Y007817D02*
X005685Y007817D01*
X005685Y008014D02*
X005921Y008014D01*
X005921Y008211D02*
X005685Y008211D01*
X005685Y008408D02*
X005921Y008408D01*
X005439Y008654D02*
X005439Y008890D01*
X005242Y008890D02*
X005242Y008654D01*
X005045Y008654D02*
X005045Y008890D01*
X004848Y008890D02*
X004848Y008654D01*
X004651Y008654D02*
X004651Y008890D01*
X009769Y009884D02*
X009966Y009884D01*
X009966Y010081D02*
X009769Y010081D01*
X009769Y010278D02*
X009966Y010278D01*
X009966Y010475D02*
X009769Y010475D01*
X009769Y010671D02*
X009966Y010671D01*
X010163Y010868D02*
X010163Y011065D01*
X010360Y011065D02*
X010360Y010868D01*
X010557Y010868D02*
X010557Y011065D01*
X010754Y011065D02*
X010754Y010868D01*
X010950Y010868D02*
X010950Y011065D01*
X011147Y010671D02*
X011344Y010671D01*
X011344Y010475D02*
X011147Y010475D01*
X011147Y010278D02*
X011344Y010278D01*
X011344Y010081D02*
X011147Y010081D01*
X011147Y009884D02*
X011344Y009884D01*
X010950Y009687D02*
X010950Y009490D01*
X010754Y009490D02*
X010754Y009687D01*
X010557Y009687D02*
X010557Y009490D01*
X010360Y009490D02*
X010360Y009687D01*
X010163Y009687D02*
X010163Y009490D01*
D22*
X005045Y008014D03*
D23*
X010557Y010278D03*
D24*
X012525Y009983D03*
X012525Y010770D03*
X008096Y010573D03*
X008096Y009786D03*
X007013Y010081D03*
X007013Y009294D03*
D25*
X008687Y008506D03*
X009474Y008506D03*
D26*
X006817Y011656D03*
X006069Y011656D03*
X006069Y012542D03*
X006817Y012542D03*
D27*
X008883Y012935D03*
X008883Y011754D03*
X002092Y005357D03*
X002092Y004175D03*
D28*
X009966Y012935D03*
X011147Y012935D03*
D29*
X015340Y004451D03*
X015340Y004136D03*
X015340Y003821D03*
X015340Y003506D03*
X015970Y003506D03*
X015970Y003821D03*
X015970Y004136D03*
X015970Y004451D03*
D30*
X015970Y006164D03*
X011836Y009589D03*
X011393Y008949D03*
X010901Y008949D03*
X010557Y010278D03*
X011836Y011262D03*
X012525Y011951D03*
X011836Y012640D03*
X012525Y012935D03*
X012870Y013526D03*
X014592Y012837D03*
X010754Y011754D03*
X009966Y011754D03*
X008687Y010475D03*
X008687Y009786D03*
X007506Y008112D03*
X008687Y007916D03*
X008687Y007423D03*
X010163Y005770D03*
X006620Y005652D03*
X006128Y005750D03*
X006029Y006439D03*
X005340Y007719D03*
X004750Y007719D03*
X004750Y008309D03*
X005340Y008309D03*
X003667Y008309D03*
X003470Y007817D03*
X004061Y006538D03*
X006423Y010081D03*
X005340Y011656D03*
X005340Y012345D03*
X004159Y011360D03*
X003569Y011065D03*
X001600Y010573D03*
X001700Y012857D03*
X003300Y012857D03*
X008194Y011754D03*
X009474Y002423D03*
X003864Y002423D03*
M02*
