%
M48
M72
T01C0.0200
T02C0.0394
T03C0.0630
T04C0.1102
%
T01
X3864Y2423
X6128Y5750
X6620Y5652
X6029Y6439
X5340Y7719
X4750Y7719
X4750Y8309
X5340Y8309
X3667Y8309
X3470Y7817
X4061Y6538
X7506Y8112
X8687Y7916
X8687Y7423
X10163Y5770
X10901Y8949
X11393Y8949
X11836Y9589
X10557Y10278
X11836Y11262
X12525Y11951
X11836Y12640
X12525Y12935
X12870Y13526
X14592Y12837
X10754Y11754
X9966Y11754
X8687Y10475
X8687Y9786
X8194Y11754
X6423Y10081
X5340Y11656
X5340Y12345
X4159Y11360
X3569Y11065
X1600Y10573
X1700Y12857
X3300Y12857
X9474Y2423
X15970Y6164
T02
X14600Y5357
X14600Y4357
X14600Y3357
X14600Y2357
X13600Y6357
X13600Y7357
X13600Y8357
X13600Y9357
X13600Y10357
X13600Y11357
X13600Y12357
X13600Y13357
X2600Y13357
X2600Y12357
X2600Y11357
X2600Y10357
X2600Y9357
X2600Y8357
X1600Y8357
X1600Y7357
X2600Y7357
X2600Y6357
X1600Y6357
T03
X5340Y4864
X5340Y2502
X10950Y2502
X10950Y4864
T04
X15600Y7357
M30
