G75*
%MOIN*%
%OFA0B0*%
%FSLAX24Y24*%
%IPPOS*%
%LPD*%
%AMOC8*
5,1,8,0,0,1.08239X$1,22.5*
%
%ADD10C,0.0060*%
%ADD11OC8,0.0591*%
%ADD12R,0.0591X0.0512*%
%ADD13R,0.0413X0.0425*%
%ADD14R,0.0689X0.1142*%
%ADD15R,0.0689X0.0827*%
%ADD16R,0.0886X0.0945*%
%ADD17R,0.0886X0.1142*%
%ADD18R,0.0689X0.0709*%
%ADD19R,0.0425X0.0413*%
%ADD20C,0.0049*%
%ADD21R,0.0984X0.0984*%
%ADD22C,0.0050*%
%ADD23C,0.0094*%
%ADD24R,0.0630X0.0512*%
%ADD25R,0.0512X0.0630*%
%ADD26R,0.0512X0.0591*%
%ADD27R,0.0630X0.0472*%
%ADD28R,0.0472X0.0630*%
%ADD29R,0.0354X0.0197*%
%ADD30C,0.0100*%
%ADD31C,0.0340*%
%ADD32C,0.0160*%
D10*
X015895Y008044D02*
X015895Y008157D01*
X015895Y008101D02*
X016235Y008101D01*
X016235Y008157D02*
X016235Y008044D01*
X016235Y008290D02*
X016008Y008516D01*
X015952Y008516D01*
X015895Y008460D01*
X015895Y008346D01*
X015952Y008290D01*
X016235Y008290D02*
X016235Y008516D01*
X016179Y008658D02*
X016235Y008715D01*
X016235Y008828D01*
X016179Y008885D01*
X016122Y008885D01*
X016065Y008828D01*
X016065Y008715D01*
X016008Y008658D01*
X015952Y008658D01*
X015895Y008715D01*
X015895Y008828D01*
X015952Y008885D01*
X015952Y009395D02*
X016179Y009395D01*
X016235Y009451D01*
X016235Y009565D01*
X016179Y009621D01*
X016179Y009763D02*
X016065Y009763D01*
X016008Y009820D01*
X016008Y009933D01*
X016065Y009990D01*
X016179Y009990D01*
X016235Y009933D01*
X016235Y009820D01*
X016179Y009763D01*
X015952Y009621D02*
X015895Y009565D01*
X015895Y009451D01*
X015952Y009395D01*
X016065Y010131D02*
X016008Y010188D01*
X016008Y010358D01*
X015895Y010358D02*
X016235Y010358D01*
X016235Y010188D01*
X016179Y010131D01*
X016065Y010131D01*
X016065Y010499D02*
X016008Y010556D01*
X016008Y010670D01*
X016065Y010726D01*
X016122Y010726D01*
X016122Y010499D01*
X016179Y010499D02*
X016065Y010499D01*
X016179Y010499D02*
X016235Y010556D01*
X016235Y010670D01*
X016179Y010868D02*
X016065Y010868D01*
X016008Y010924D01*
X016008Y011095D01*
X016235Y011095D02*
X016235Y010924D01*
X016179Y010868D01*
X016235Y011604D02*
X016235Y011775D01*
X016179Y011831D01*
X016065Y011831D01*
X016008Y011775D01*
X016008Y011604D01*
X016349Y011604D01*
X016179Y011973D02*
X016008Y011973D01*
X016179Y011973D02*
X016235Y012029D01*
X016235Y012200D01*
X016292Y012200D02*
X016008Y012200D01*
X016065Y012341D02*
X016008Y012398D01*
X016008Y012568D01*
X016122Y012511D02*
X016122Y012398D01*
X016065Y012341D01*
X016235Y012341D02*
X016235Y012511D01*
X016179Y012568D01*
X016122Y012511D01*
X016122Y012709D02*
X016008Y012879D01*
X016008Y013016D02*
X016008Y013073D01*
X016235Y013073D01*
X016235Y013016D02*
X016235Y013130D01*
X016235Y013262D02*
X016008Y013262D01*
X016008Y013432D01*
X016065Y013489D01*
X016235Y013489D01*
X015895Y013073D02*
X015838Y013073D01*
X016235Y012879D02*
X016122Y012709D01*
X016235Y012709D02*
X015895Y012709D01*
X016292Y012200D02*
X016349Y012143D01*
X016349Y012086D01*
D11*
X013600Y012357D03*
X013600Y011357D03*
X013600Y010357D03*
X013600Y009357D03*
X013600Y008357D03*
X013600Y007357D03*
X013600Y006357D03*
X014600Y005357D03*
X014600Y004357D03*
X014600Y003357D03*
X014600Y002357D03*
X002600Y006357D03*
X001600Y006357D03*
X001600Y007357D03*
X002600Y007357D03*
X002600Y008357D03*
X001600Y008357D03*
X002600Y009357D03*
X002600Y010357D03*
X002600Y011357D03*
X002600Y012357D03*
X002600Y013357D03*
X013600Y013357D03*
D12*
X001403Y002423D03*
X001403Y003171D03*
X002289Y003171D03*
X002289Y002423D03*
X009376Y006577D03*
X009376Y007325D03*
X012328Y007325D03*
X012328Y006577D03*
D13*
X009474Y009195D03*
X008785Y009195D03*
X007013Y008605D03*
X006324Y008605D03*
X006324Y007620D03*
X006324Y007030D03*
X007013Y007030D03*
X007013Y007620D03*
X005242Y006538D03*
X004553Y006538D03*
X004750Y011853D03*
X004750Y012542D03*
X004061Y012542D03*
X004061Y011853D03*
D14*
X003175Y002423D03*
X008785Y002423D03*
D15*
X008785Y004904D03*
X003175Y004904D03*
D16*
X007407Y003250D03*
X013017Y003250D03*
D17*
X013017Y004983D03*
X007407Y004983D03*
D18*
X008785Y003723D03*
X003175Y003723D03*
D19*
X004159Y009392D03*
X004750Y009392D03*
X005340Y009392D03*
X005931Y009392D03*
X005931Y010081D03*
X005340Y010081D03*
X004750Y010081D03*
X004159Y010081D03*
X001600Y010046D03*
X001600Y009357D03*
X009179Y009786D03*
X009179Y010475D03*
X010163Y008408D03*
X010163Y007719D03*
X010163Y007128D03*
X010163Y006439D03*
X011147Y006439D03*
X011147Y007128D03*
X011147Y007719D03*
X011147Y008408D03*
X011836Y010081D03*
X011836Y010770D03*
X015970Y005652D03*
X015970Y004963D03*
X015970Y002994D03*
X015970Y002305D03*
D20*
X005926Y007645D02*
X005680Y007645D01*
X005926Y007645D02*
X005926Y007595D01*
X005680Y007595D01*
X005680Y007645D01*
X005680Y007643D02*
X005926Y007643D01*
X005926Y007842D02*
X005680Y007842D01*
X005926Y007842D02*
X005926Y007792D01*
X005680Y007792D01*
X005680Y007842D01*
X005680Y007840D02*
X005926Y007840D01*
X005926Y008039D02*
X005680Y008039D01*
X005926Y008039D02*
X005926Y007989D01*
X005680Y007989D01*
X005680Y008039D01*
X005680Y008037D02*
X005926Y008037D01*
X005926Y008236D02*
X005680Y008236D01*
X005926Y008236D02*
X005926Y008186D01*
X005680Y008186D01*
X005680Y008236D01*
X005680Y008234D02*
X005926Y008234D01*
X005926Y008433D02*
X005680Y008433D01*
X005926Y008433D02*
X005926Y008383D01*
X005680Y008383D01*
X005680Y008433D01*
X005680Y008431D02*
X005926Y008431D01*
X005414Y008649D02*
X005414Y008895D01*
X005464Y008895D01*
X005464Y008649D01*
X005414Y008649D01*
X005414Y008697D02*
X005464Y008697D01*
X005464Y008745D02*
X005414Y008745D01*
X005414Y008793D02*
X005464Y008793D01*
X005464Y008841D02*
X005414Y008841D01*
X005414Y008889D02*
X005464Y008889D01*
X005217Y008895D02*
X005217Y008649D01*
X005217Y008895D02*
X005267Y008895D01*
X005267Y008649D01*
X005217Y008649D01*
X005217Y008697D02*
X005267Y008697D01*
X005267Y008745D02*
X005217Y008745D01*
X005217Y008793D02*
X005267Y008793D01*
X005267Y008841D02*
X005217Y008841D01*
X005217Y008889D02*
X005267Y008889D01*
X005020Y008895D02*
X005020Y008649D01*
X005020Y008895D02*
X005070Y008895D01*
X005070Y008649D01*
X005020Y008649D01*
X005020Y008697D02*
X005070Y008697D01*
X005070Y008745D02*
X005020Y008745D01*
X005020Y008793D02*
X005070Y008793D01*
X005070Y008841D02*
X005020Y008841D01*
X005020Y008889D02*
X005070Y008889D01*
X004823Y008895D02*
X004823Y008649D01*
X004823Y008895D02*
X004873Y008895D01*
X004873Y008649D01*
X004823Y008649D01*
X004823Y008697D02*
X004873Y008697D01*
X004873Y008745D02*
X004823Y008745D01*
X004823Y008793D02*
X004873Y008793D01*
X004873Y008841D02*
X004823Y008841D01*
X004823Y008889D02*
X004873Y008889D01*
X004626Y008895D02*
X004626Y008649D01*
X004626Y008895D02*
X004676Y008895D01*
X004676Y008649D01*
X004626Y008649D01*
X004626Y008697D02*
X004676Y008697D01*
X004676Y008745D02*
X004626Y008745D01*
X004626Y008793D02*
X004676Y008793D01*
X004676Y008841D02*
X004626Y008841D01*
X004626Y008889D02*
X004676Y008889D01*
X004410Y008383D02*
X004164Y008383D01*
X004164Y008433D01*
X004410Y008433D01*
X004410Y008383D01*
X004410Y008431D02*
X004164Y008431D01*
X004164Y008186D02*
X004410Y008186D01*
X004164Y008186D02*
X004164Y008236D01*
X004410Y008236D01*
X004410Y008186D01*
X004410Y008234D02*
X004164Y008234D01*
X004164Y007989D02*
X004410Y007989D01*
X004164Y007989D02*
X004164Y008039D01*
X004410Y008039D01*
X004410Y007989D01*
X004410Y008037D02*
X004164Y008037D01*
X004164Y007792D02*
X004410Y007792D01*
X004164Y007792D02*
X004164Y007842D01*
X004410Y007842D01*
X004410Y007792D01*
X004410Y007840D02*
X004164Y007840D01*
X004164Y007595D02*
X004410Y007595D01*
X004164Y007595D02*
X004164Y007645D01*
X004410Y007645D01*
X004410Y007595D01*
X004410Y007643D02*
X004164Y007643D01*
X004676Y007379D02*
X004676Y007133D01*
X004626Y007133D01*
X004626Y007379D01*
X004676Y007379D01*
X004676Y007181D02*
X004626Y007181D01*
X004626Y007229D02*
X004676Y007229D01*
X004676Y007277D02*
X004626Y007277D01*
X004626Y007325D02*
X004676Y007325D01*
X004676Y007373D02*
X004626Y007373D01*
X004873Y007379D02*
X004873Y007133D01*
X004823Y007133D01*
X004823Y007379D01*
X004873Y007379D01*
X004873Y007181D02*
X004823Y007181D01*
X004823Y007229D02*
X004873Y007229D01*
X004873Y007277D02*
X004823Y007277D01*
X004823Y007325D02*
X004873Y007325D01*
X004873Y007373D02*
X004823Y007373D01*
X005070Y007379D02*
X005070Y007133D01*
X005020Y007133D01*
X005020Y007379D01*
X005070Y007379D01*
X005070Y007181D02*
X005020Y007181D01*
X005020Y007229D02*
X005070Y007229D01*
X005070Y007277D02*
X005020Y007277D01*
X005020Y007325D02*
X005070Y007325D01*
X005070Y007373D02*
X005020Y007373D01*
X005267Y007379D02*
X005267Y007133D01*
X005217Y007133D01*
X005217Y007379D01*
X005267Y007379D01*
X005267Y007181D02*
X005217Y007181D01*
X005217Y007229D02*
X005267Y007229D01*
X005267Y007277D02*
X005217Y007277D01*
X005217Y007325D02*
X005267Y007325D01*
X005267Y007373D02*
X005217Y007373D01*
X005464Y007379D02*
X005464Y007133D01*
X005414Y007133D01*
X005414Y007379D01*
X005464Y007379D01*
X005464Y007181D02*
X005414Y007181D01*
X005414Y007229D02*
X005464Y007229D01*
X005464Y007277D02*
X005414Y007277D01*
X005414Y007325D02*
X005464Y007325D01*
X005464Y007373D02*
X005414Y007373D01*
D21*
X005045Y008014D03*
D22*
X009768Y009859D02*
X009968Y009859D01*
X009768Y009859D02*
X009768Y009909D01*
X009968Y009909D01*
X009968Y009859D01*
X009968Y009908D02*
X009768Y009908D01*
X009768Y010056D02*
X009968Y010056D01*
X009768Y010056D02*
X009768Y010106D01*
X009968Y010106D01*
X009968Y010056D01*
X009968Y010105D02*
X009768Y010105D01*
X009768Y010253D02*
X009968Y010253D01*
X009768Y010253D02*
X009768Y010303D01*
X009968Y010303D01*
X009968Y010253D01*
X009968Y010302D02*
X009768Y010302D01*
X009768Y010450D02*
X009968Y010450D01*
X009768Y010450D02*
X009768Y010500D01*
X009968Y010500D01*
X009968Y010450D01*
X009968Y010499D02*
X009768Y010499D01*
X009768Y010646D02*
X009968Y010646D01*
X009768Y010646D02*
X009768Y010696D01*
X009968Y010696D01*
X009968Y010646D01*
X009968Y010695D02*
X009768Y010695D01*
X010138Y010867D02*
X010138Y011067D01*
X010188Y011067D01*
X010188Y010867D01*
X010138Y010867D01*
X010138Y010916D02*
X010188Y010916D01*
X010188Y010965D02*
X010138Y010965D01*
X010138Y011014D02*
X010188Y011014D01*
X010188Y011063D02*
X010138Y011063D01*
X010335Y011067D02*
X010335Y010867D01*
X010335Y011067D02*
X010385Y011067D01*
X010385Y010867D01*
X010335Y010867D01*
X010335Y010916D02*
X010385Y010916D01*
X010385Y010965D02*
X010335Y010965D01*
X010335Y011014D02*
X010385Y011014D01*
X010385Y011063D02*
X010335Y011063D01*
X010532Y011067D02*
X010532Y010867D01*
X010532Y011067D02*
X010582Y011067D01*
X010582Y010867D01*
X010532Y010867D01*
X010532Y010916D02*
X010582Y010916D01*
X010582Y010965D02*
X010532Y010965D01*
X010532Y011014D02*
X010582Y011014D01*
X010582Y011063D02*
X010532Y011063D01*
X010729Y011067D02*
X010729Y010867D01*
X010729Y011067D02*
X010779Y011067D01*
X010779Y010867D01*
X010729Y010867D01*
X010729Y010916D02*
X010779Y010916D01*
X010779Y010965D02*
X010729Y010965D01*
X010729Y011014D02*
X010779Y011014D01*
X010779Y011063D02*
X010729Y011063D01*
X010925Y011067D02*
X010925Y010867D01*
X010925Y011067D02*
X010975Y011067D01*
X010975Y010867D01*
X010925Y010867D01*
X010925Y010916D02*
X010975Y010916D01*
X010975Y010965D02*
X010925Y010965D01*
X010925Y011014D02*
X010975Y011014D01*
X010975Y011063D02*
X010925Y011063D01*
X011146Y010696D02*
X011346Y010696D01*
X011346Y010646D01*
X011146Y010646D01*
X011146Y010696D01*
X011146Y010695D02*
X011346Y010695D01*
X011346Y010500D02*
X011146Y010500D01*
X011346Y010500D02*
X011346Y010450D01*
X011146Y010450D01*
X011146Y010500D01*
X011146Y010499D02*
X011346Y010499D01*
X011346Y010303D02*
X011146Y010303D01*
X011346Y010303D02*
X011346Y010253D01*
X011146Y010253D01*
X011146Y010303D01*
X011146Y010302D02*
X011346Y010302D01*
X011346Y010106D02*
X011146Y010106D01*
X011346Y010106D02*
X011346Y010056D01*
X011146Y010056D01*
X011146Y010106D01*
X011146Y010105D02*
X011346Y010105D01*
X011346Y009909D02*
X011146Y009909D01*
X011346Y009909D02*
X011346Y009859D01*
X011146Y009859D01*
X011146Y009909D01*
X011146Y009908D02*
X011346Y009908D01*
X010975Y009689D02*
X010975Y009489D01*
X010925Y009489D01*
X010925Y009689D01*
X010975Y009689D01*
X010975Y009538D02*
X010925Y009538D01*
X010925Y009587D02*
X010975Y009587D01*
X010975Y009636D02*
X010925Y009636D01*
X010925Y009685D02*
X010975Y009685D01*
X010779Y009689D02*
X010779Y009489D01*
X010729Y009489D01*
X010729Y009689D01*
X010779Y009689D01*
X010779Y009538D02*
X010729Y009538D01*
X010729Y009587D02*
X010779Y009587D01*
X010779Y009636D02*
X010729Y009636D01*
X010729Y009685D02*
X010779Y009685D01*
X010582Y009689D02*
X010582Y009489D01*
X010532Y009489D01*
X010532Y009689D01*
X010582Y009689D01*
X010582Y009538D02*
X010532Y009538D01*
X010532Y009587D02*
X010582Y009587D01*
X010582Y009636D02*
X010532Y009636D01*
X010532Y009685D02*
X010582Y009685D01*
X010385Y009689D02*
X010385Y009489D01*
X010335Y009489D01*
X010335Y009689D01*
X010385Y009689D01*
X010385Y009538D02*
X010335Y009538D01*
X010335Y009587D02*
X010385Y009587D01*
X010385Y009636D02*
X010335Y009636D01*
X010335Y009685D02*
X010385Y009685D01*
X010188Y009689D02*
X010188Y009489D01*
X010138Y009489D01*
X010138Y009689D01*
X010188Y009689D01*
X010188Y009538D02*
X010138Y009538D01*
X010138Y009587D02*
X010188Y009587D01*
X010188Y009636D02*
X010138Y009636D01*
X010138Y009685D02*
X010188Y009685D01*
D23*
X010132Y010703D02*
X010982Y010703D01*
X010982Y009853D01*
X010132Y009853D01*
X010132Y010703D01*
X010132Y009946D02*
X010982Y009946D01*
X010982Y010039D02*
X010132Y010039D01*
X010132Y010132D02*
X010982Y010132D01*
X010982Y010225D02*
X010132Y010225D01*
X010132Y010318D02*
X010982Y010318D01*
X010982Y010411D02*
X010132Y010411D01*
X010132Y010504D02*
X010982Y010504D01*
X010982Y010597D02*
X010132Y010597D01*
X010132Y010690D02*
X010982Y010690D01*
D24*
X012525Y010770D03*
X012525Y009983D03*
X008096Y009786D03*
X008096Y010573D03*
X007013Y010081D03*
X007013Y009294D03*
D25*
X008687Y008506D03*
X009474Y008506D03*
D26*
X006817Y011656D03*
X006069Y011656D03*
X006069Y012542D03*
X006817Y012542D03*
D27*
X008883Y012935D03*
X008883Y011754D03*
X002092Y005357D03*
X002092Y004175D03*
D28*
X009966Y012935D03*
X011147Y012935D03*
D29*
X015340Y004451D03*
X015340Y004136D03*
X015340Y003821D03*
X015340Y003506D03*
X015970Y003506D03*
X015970Y003821D03*
X015970Y004136D03*
X015970Y004451D03*
D30*
X015970Y004136D01*
X015970Y003821D02*
X015970Y003506D01*
X015970Y002994D01*
X015340Y003506D02*
X015191Y003357D01*
X014600Y003357D01*
X014533Y003290D01*
X013057Y003290D01*
X013017Y003250D01*
X013608Y004077D02*
X012230Y004077D01*
X011935Y003782D01*
X008785Y003782D01*
X008785Y003723D01*
X008785Y004904D02*
X008785Y005061D01*
X009376Y005652D01*
X009376Y006577D01*
X009572Y007128D02*
X010163Y007128D01*
X010163Y007719D01*
X009572Y007128D02*
X009376Y007325D01*
X008687Y007227D02*
X008687Y007423D01*
X008687Y007227D02*
X007604Y006144D01*
X007112Y006144D01*
X006620Y005652D01*
X006128Y005750D02*
X006718Y006341D01*
X007506Y006341D01*
X008293Y007128D01*
X008293Y007522D01*
X008687Y007916D01*
X008687Y008506D02*
X008687Y009097D01*
X008785Y009195D01*
X008687Y009294D01*
X008687Y009786D01*
X009179Y009786D01*
X009474Y010081D01*
X009868Y010081D01*
X010360Y010081D01*
X010557Y010278D01*
X011246Y010278D01*
X011639Y010278D01*
X011836Y010081D01*
X011935Y009983D01*
X012525Y009983D01*
X011836Y010081D02*
X011836Y009589D01*
X011246Y009687D02*
X012919Y008014D01*
X012919Y006931D01*
X013494Y006357D01*
X013600Y006357D01*
X014691Y007128D02*
X014691Y012738D01*
X014592Y012837D01*
X014297Y012542D02*
X014002Y012837D01*
X013214Y012837D01*
X012919Y012542D01*
X012230Y012542D01*
X011935Y012246D01*
X011443Y012246D01*
X011344Y012345D01*
X010557Y012345D01*
X009966Y011754D01*
X010163Y011557D01*
X010163Y010967D01*
X010360Y010967D02*
X010360Y011853D01*
X010655Y012148D01*
X011246Y012148D01*
X011344Y012049D01*
X012033Y012049D01*
X012328Y012345D01*
X013588Y012345D01*
X013600Y012357D01*
X014297Y012542D02*
X014297Y010967D01*
X013687Y010357D01*
X013600Y010357D01*
X012525Y010770D02*
X011836Y010770D01*
X011836Y011262D01*
X012135Y011652D02*
X011439Y011652D01*
X011049Y011262D01*
X010950Y011164D01*
X010950Y010967D01*
X010754Y010967D02*
X010754Y011262D01*
X011344Y011853D01*
X012427Y011853D01*
X012525Y011951D01*
X012135Y011652D02*
X012431Y011357D01*
X013600Y011357D01*
X011836Y010770D02*
X011541Y010475D01*
X011246Y010475D01*
X011246Y009884D02*
X011246Y009687D01*
X011049Y009294D02*
X010852Y009294D01*
X010754Y009392D01*
X010754Y009589D01*
X010557Y009589D02*
X010557Y009294D01*
X010901Y008949D01*
X011049Y009294D02*
X011393Y008949D01*
X011147Y008408D02*
X010852Y008408D01*
X010360Y008900D01*
X010360Y009589D01*
X010163Y009589D02*
X010163Y008408D01*
X009474Y008506D02*
X009474Y009195D01*
X009868Y009589D01*
X009868Y009884D01*
X009868Y010278D02*
X009376Y010278D01*
X009179Y010475D01*
X008687Y010475D01*
X008194Y010475D01*
X008096Y010573D01*
X007407Y011065D02*
X006817Y011656D01*
X007407Y011065D02*
X009376Y011065D01*
X009572Y010868D01*
X009572Y010573D01*
X009671Y010475D01*
X009868Y010475D01*
X009868Y010671D02*
X009868Y010868D01*
X009474Y011262D01*
X008096Y011262D01*
X006817Y012542D01*
X006069Y012542D02*
X005537Y012542D01*
X005340Y012345D01*
X005143Y012542D01*
X004750Y012542D01*
X004897Y012000D02*
X005724Y012000D01*
X006069Y011656D01*
X005340Y011656D02*
X005340Y010081D01*
X004750Y010081D02*
X004750Y011853D01*
X004897Y012000D01*
X004159Y011754D02*
X004061Y011853D01*
X004061Y012542D01*
X003674Y013231D02*
X003300Y012857D01*
X003674Y013231D02*
X008588Y013231D01*
X008883Y012935D01*
X009966Y012935D01*
X010261Y012345D02*
X010557Y012640D01*
X010557Y013231D01*
X010852Y013526D01*
X012870Y013526D01*
X013340Y013357D02*
X013600Y013357D01*
X013340Y013357D02*
X012919Y012935D01*
X012525Y012935D01*
X011836Y012640D02*
X011541Y012935D01*
X011147Y012935D01*
X010261Y012345D02*
X009474Y012345D01*
X008883Y011754D01*
X008194Y011754D01*
X007013Y010081D02*
X006423Y010081D01*
X005931Y010081D01*
X005931Y009392D02*
X005931Y008998D01*
X005734Y008801D01*
X005439Y008801D01*
X005439Y008772D01*
X005242Y008772D02*
X005242Y009294D01*
X005340Y009392D01*
X004848Y009294D02*
X004750Y009392D01*
X004848Y009294D02*
X004848Y008772D01*
X004651Y008772D02*
X004651Y008801D01*
X004356Y008801D01*
X004257Y008900D01*
X004159Y008998D01*
X004159Y009392D01*
X003569Y008900D02*
X004061Y008408D01*
X004287Y008408D01*
X004287Y008211D02*
X003765Y008211D01*
X003667Y008309D01*
X003372Y008605D01*
X003372Y010671D01*
X003175Y010868D01*
X003175Y011782D01*
X002600Y012357D01*
X002092Y012935D02*
X002513Y013357D01*
X002600Y013357D01*
X002092Y012935D02*
X002092Y011065D01*
X002289Y010868D01*
X002880Y010868D01*
X003175Y010573D01*
X003175Y008112D01*
X003470Y007817D01*
X003765Y007817D01*
X003962Y008014D01*
X004287Y008014D01*
X004287Y007817D02*
X004651Y007817D01*
X004750Y007719D01*
X005045Y008014D01*
X005045Y007256D01*
X005045Y006734D01*
X005242Y006538D01*
X004848Y006833D02*
X004553Y006538D01*
X004848Y006833D02*
X004848Y007256D01*
X004651Y007256D02*
X004651Y007030D01*
X004553Y006931D01*
X003962Y006931D01*
X003667Y006636D01*
X003667Y005396D01*
X003175Y004904D01*
X003175Y003723D02*
X001738Y003723D01*
X001403Y003388D01*
X001403Y003171D01*
X001403Y002423D02*
X002289Y002423D01*
X003175Y002423D01*
X003864Y002423D01*
X002289Y003171D02*
X002289Y003191D01*
X007348Y003191D01*
X007407Y003250D01*
X008785Y002423D02*
X009474Y002423D01*
X007407Y004983D02*
X007387Y004983D01*
X007309Y005061D01*
X006128Y005061D01*
X005635Y005553D01*
X005635Y006833D01*
X005537Y006931D01*
X005340Y006931D01*
X005242Y007030D01*
X005242Y007256D01*
X005439Y007256D02*
X005439Y007227D01*
X005832Y007227D01*
X006128Y007227D01*
X006324Y007030D01*
X005832Y007227D02*
X005832Y007620D01*
X005803Y007620D01*
X005803Y007817D02*
X006128Y007817D01*
X006324Y007620D01*
X006620Y008014D02*
X005803Y008014D01*
X005803Y008211D02*
X006620Y008211D01*
X007013Y008605D01*
X007506Y008112D01*
X007506Y007227D01*
X007309Y007030D01*
X007013Y007030D01*
X007013Y007620D02*
X006620Y008014D01*
X006128Y008408D02*
X006324Y008605D01*
X007013Y009294D01*
X008096Y009786D02*
X008687Y009786D01*
X010557Y010967D02*
X010557Y011557D01*
X010754Y011754D01*
X006128Y008408D02*
X005803Y008408D01*
X005803Y008211D02*
X005439Y008211D01*
X005340Y008309D01*
X005045Y008014D02*
X005045Y008772D01*
X004750Y007719D02*
X004651Y007620D01*
X004287Y007620D01*
X003569Y008900D02*
X003569Y011065D01*
X004159Y011360D02*
X004159Y011754D01*
X004159Y011360D02*
X004159Y010081D01*
X002600Y010357D02*
X001600Y009357D01*
X002100Y008857D01*
X002100Y007857D01*
X001600Y007357D01*
X001600Y008357D02*
X001100Y008857D01*
X001100Y012257D01*
X001700Y012857D01*
X001600Y010573D02*
X001600Y010046D01*
X002600Y006357D02*
X002584Y006341D01*
X010163Y006439D02*
X010163Y005770D01*
X010163Y006439D02*
X011147Y006439D01*
X011147Y007128D02*
X012131Y007128D01*
X012328Y007325D01*
X012328Y006577D02*
X012328Y005849D01*
X013017Y005160D01*
X013017Y004983D01*
X013903Y005061D02*
X013903Y004372D01*
X013608Y004077D01*
X013903Y005061D02*
X014198Y005357D01*
X014600Y005357D01*
X014986Y005357D01*
X015340Y005002D01*
X015340Y004451D01*
X015340Y004136D02*
X015576Y004136D01*
X015655Y004215D01*
X015655Y004648D01*
X015576Y004727D01*
X015576Y006242D01*
X014691Y007128D01*
X015970Y006164D02*
X015970Y005652D01*
X015970Y004963D02*
X015970Y004451D01*
X015340Y004136D02*
X015340Y003821D01*
X014600Y002357D02*
X014651Y002305D01*
X015970Y002305D01*
X011147Y007128D02*
X011147Y007719D01*
D31*
X010901Y008949D03*
X011393Y008949D03*
X011836Y009589D03*
X010557Y010278D03*
X011836Y011262D03*
X012525Y011951D03*
X011836Y012640D03*
X012525Y012935D03*
X012870Y013526D03*
X014592Y012837D03*
X010754Y011754D03*
X009966Y011754D03*
X008687Y010475D03*
X008687Y009786D03*
X007506Y008112D03*
X008687Y007916D03*
X008687Y007423D03*
X010163Y005770D03*
X006620Y005652D03*
X006128Y005750D03*
X006029Y006439D03*
X005340Y007719D03*
X004750Y007719D03*
X004750Y008309D03*
X005340Y008309D03*
X003667Y008309D03*
X003470Y007817D03*
X004061Y006538D03*
X006423Y010081D03*
X005340Y011656D03*
X005340Y012345D03*
X004159Y011360D03*
X003569Y011065D03*
X001600Y010573D03*
X001700Y012857D03*
X003300Y012857D03*
X008194Y011754D03*
X015970Y006164D03*
X009474Y002423D03*
X003864Y002423D03*
D32*
X002092Y004175D02*
X002191Y004274D01*
X003765Y004274D01*
X004061Y004569D01*
X004061Y006538D01*
X004553Y006538D01*
X006029Y006439D02*
X006226Y006636D01*
X007407Y006636D01*
X007899Y007128D01*
X007899Y008605D01*
X007210Y009294D01*
X007013Y009294D01*
X002584Y006341D02*
X002584Y005849D01*
X002092Y005357D01*
M02*
