G75*
%MOIN*%
%OFA0B0*%
%FSLAX24Y24*%
%IPPOS*%
%LPD*%
%AMOC8*
5,1,8,0,0,1.08239X$1,22.5*
%
%ADD10C,0.1162*%
%ADD11OC8,0.0651*%
%ADD12C,0.0690*%
%ADD13C,0.0400*%
D10*
X015600Y007357D03*
D11*
X013600Y007357D03*
X013600Y008357D03*
X013600Y009357D03*
X013600Y010357D03*
X013600Y011357D03*
X013600Y012357D03*
X013600Y013357D03*
X013600Y006357D03*
X014600Y005357D03*
X014600Y004357D03*
X014600Y003357D03*
X014600Y002357D03*
X002600Y006357D03*
X001600Y006357D03*
X001600Y007357D03*
X002600Y007357D03*
X002600Y008357D03*
X001600Y008357D03*
X002600Y009357D03*
X002600Y010357D03*
X002600Y011357D03*
X002600Y012357D03*
X002600Y013357D03*
D12*
X005340Y004864D03*
X005340Y002502D03*
X010950Y002502D03*
X010950Y004864D03*
D13*
X003864Y002423D03*
X006128Y005750D03*
X006620Y005652D03*
X006029Y006439D03*
X005340Y007719D03*
X004750Y007719D03*
X004750Y008309D03*
X005340Y008309D03*
X003667Y008309D03*
X003470Y007817D03*
X004061Y006538D03*
X007506Y008112D03*
X008687Y007916D03*
X008687Y007423D03*
X010163Y005770D03*
X010901Y008949D03*
X011393Y008949D03*
X011836Y009589D03*
X010557Y010278D03*
X011836Y011262D03*
X012525Y011951D03*
X011836Y012640D03*
X012525Y012935D03*
X012870Y013526D03*
X014592Y012837D03*
X010754Y011754D03*
X009966Y011754D03*
X008687Y010475D03*
X008687Y009786D03*
X008194Y011754D03*
X006423Y010081D03*
X005340Y011656D03*
X005340Y012345D03*
X004159Y011360D03*
X003569Y011065D03*
X001600Y010573D03*
X001700Y012857D03*
X003300Y012857D03*
X009474Y002423D03*
X015970Y006164D03*
M02*
